<svg width="1801" height="993" xmlns="http://www.w3.org/2000/svg" xmlns:xlink="http://www.w3.org/1999/xlink" xml:space="preserve" overflow="hidden"><defs><clipPath id="clip0"><rect x="4980" y="1517" width="1801" height="993"/></clipPath></defs><g clip-path="url(#clip0)" transform="translate(-4980 -1517)"><rect x="4981" y="1518" width="1798" height="990" fill="#FFFFFF"/><g><path d="M5132.5 2234.57 6618.5 2234.57M5132.5 2173.57 6618.5 2173.57M5132.5 2112.57 6618.5 2112.57M5132.5 2050.57 6618.5 2050.57M5132.5 1989.57 6618.5 1989.57M5132.5 1927.56 6618.5 1927.56M5132.5 1866.56 6618.5 1866.56M5132.5 1804.56 6618.5 1804.56M5132.5 1743.56 6618.5 1743.56M5132.5 1682.5 6618.5 1682.5" stroke="#D9D9D9" stroke-width="3.4375" stroke-linejoin="round" stroke-miterlimit="10" fill="none"/></g><g><path d="M5197.17 1930.06 5256.17 1930.06 5256.17 2296 5197.17 2296ZM5445.18 2280.07 5504.18 2280.07 5504.18 2296 5445.18 2296ZM5692.19 1772.06 5752.19 1772.06 5752.19 2296 5692.19 2296ZM5940.19 2278.07 5999.2 2278.07 5999.2 2296 5940.19 2296ZM6188.2 1710.06 6247.21 1710.06 6247.21 2296 6188.2 2296ZM6435.21 2279.07 6494.21 2279.07 6494.21 2296 6435.21 2296Z" fill="#4472C4"/></g><g><path d="M5256.17 1714.06 5315.17 1714.06 5315.17 2296 5256.17 2296ZM5504.18 1868.06 5563.18 1868.06 5563.18 2296 5504.18 2296ZM5752.19 1705.06 5811.19 1705.06 5811.19 2296 5752.19 2296ZM5999.2 1845.06 6058.2 1845.06 6058.2 2296 5999.2 2296ZM6247.21 1702.06 6306.21 1702.06 6306.21 2296 6247.21 2296ZM6494.21 1852.06 6554.22 1852.06 6554.22 2296 6494.21 2296Z" fill="#FFC000"/></g><g><path d="M5132.5 2296.5 6618.5 2296.5" stroke="#D9D9D9" stroke-width="3.4375" stroke-linejoin="round" stroke-miterlimit="10" fill="none" fill-rule="evenodd"/></g><g><text fill="#595959" font-family="Calibri,Calibri_MSFontService,sans-serif" font-weight="400" font-size="41" transform="matrix(1 0 0 1 6656.76 2308)">0%</text></g><g><text fill="#595959" font-family="Calibri,Calibri_MSFontService,sans-serif" font-weight="400" font-size="41" transform="matrix(1 0 0 1 6656.76 2247)">10%</text></g><g><text fill="#595959" font-family="Calibri,Calibri_MSFontService,sans-serif" font-weight="400" font-size="41" transform="matrix(1 0 0 1 6656.76 2185)">20%</text></g><g><text fill="#595959" font-family="Calibri,Calibri_MSFontService,sans-serif" font-weight="400" font-size="41" transform="matrix(1 0 0 1 6656.76 2124)">30%</text></g><g><text fill="#595959" font-family="Calibri,Calibri_MSFontService,sans-serif" font-weight="400" font-size="41" transform="matrix(1 0 0 1 6656.76 2062)">40%</text></g><g><text fill="#595959" font-family="Calibri,Calibri_MSFontService,sans-serif" font-weight="400" font-size="41" transform="matrix(1 0 0 1 6656.76 2001)">50%</text></g><g><text fill="#595959" font-family="Calibri,Calibri_MSFontService,sans-serif" font-weight="400" font-size="41" transform="matrix(1 0 0 1 6656.76 1939)">60%</text></g><g><text fill="#595959" font-family="Calibri,Calibri_MSFontService,sans-serif" font-weight="400" font-size="41" transform="matrix(1 0 0 1 6656.76 1878)">70%</text></g><g><text fill="#595959" font-family="Calibri,Calibri_MSFontService,sans-serif" font-weight="400" font-size="41" transform="matrix(1 0 0 1 6656.76 1816)">80%</text></g><g><text fill="#595959" font-family="Calibri,Calibri_MSFontService,sans-serif" font-weight="400" font-size="41" transform="matrix(1 0 0 1 6656.76 1755)">90%</text></g><g><text fill="#595959" font-family="Calibri,Calibri_MSFontService,sans-serif" font-weight="400" font-size="41" transform="matrix(1 0 0 1 6656.76 1694)">100%</text></g><g><text fill="#595959" font-family="Calibri,Calibri_MSFontService,sans-serif" font-weight="400" font-size="41" transform="matrix(1 0 0 1 5073.43 2308)">0</text></g><g><text fill="#595959" font-family="Calibri,Calibri_MSFontService,sans-serif" font-weight="400" font-size="41" transform="matrix(1 0 0 1 5031.63 2247)">500</text></g><g><text fill="#595959" font-family="Calibri,Calibri_MSFontService,sans-serif" font-weight="400" font-size="41" transform="matrix(1 0 0 1 5010.73 2185)">1000</text></g><g><text fill="#595959" font-family="Calibri,Calibri_MSFontService,sans-serif" font-weight="400" font-size="41" transform="matrix(1 0 0 1 5010.73 2124)">1500</text></g><g><text fill="#595959" font-family="Calibri,Calibri_MSFontService,sans-serif" font-weight="400" font-size="41" transform="matrix(1 0 0 1 5010.73 2062)">2000</text></g><g><text fill="#595959" font-family="Calibri,Calibri_MSFontService,sans-serif" font-weight="400" font-size="41" transform="matrix(1 0 0 1 5010.73 2001)">2500</text></g><g><text fill="#595959" font-family="Calibri,Calibri_MSFontService,sans-serif" font-weight="400" font-size="41" transform="matrix(1 0 0 1 5010.73 1939)">3000</text></g><g><text fill="#595959" font-family="Calibri,Calibri_MSFontService,sans-serif" font-weight="400" font-size="41" transform="matrix(1 0 0 1 5010.73 1878)">3500</text></g><g><text fill="#595959" font-family="Calibri,Calibri_MSFontService,sans-serif" font-weight="400" font-size="41" transform="matrix(1 0 0 1 5010.73 1816)">4000</text></g><g><text fill="#595959" font-family="Calibri,Calibri_MSFontService,sans-serif" font-weight="400" font-size="41" transform="matrix(1 0 0 1 5010.73 1755)">4500</text></g><g><text fill="#595959" font-family="Calibri,Calibri_MSFontService,sans-serif" font-weight="400" font-size="41" transform="matrix(1 0 0 1 5010.73 1694)">5000</text></g><g><text fill="#595959" font-family="Calibri,Calibri_MSFontService,sans-serif" font-weight="400" font-size="41" transform="matrix(1 0 0 1 5235.31 2362)">P1</text></g><g><text fill="#595959" font-family="Calibri,Calibri_MSFontService,sans-serif" font-weight="400" font-size="41" transform="matrix(1 0 0 1 5482.96 2362)">P2</text></g><g><text fill="#595959" font-family="Calibri,Calibri_MSFontService,sans-serif" font-weight="400" font-size="41" transform="matrix(1 0 0 1 5723.64 2362)">M1</text></g><g><text fill="#595959" font-family="Calibri,Calibri_MSFontService,sans-serif" font-weight="400" font-size="41" transform="matrix(1 0 0 1 5971.29 2362)">M2</text></g><g><text fill="#595959" font-family="Calibri,Calibri_MSFontService,sans-serif" font-weight="400" font-size="41" transform="matrix(1 0 0 1 6223.56 2362)">G1</text></g><g><text fill="#595959" font-family="Calibri,Calibri_MSFontService,sans-serif" font-weight="400" font-size="41" transform="matrix(1 0 0 1 6471.21 2362)">G2</text></g><g><text fill="#595959" font-family="Calibri,Calibri_MSFontService,sans-serif" font-weight="400" font-size="60" transform="matrix(1 0 0 1 5215.04 1609)">Diferenças médias de soluções MOT comparadas ao BB</text></g><g><rect x="5513" y="2430" width="23" height="23" fill="#4472C4"/></g><g><text fill="#595959" font-family="Calibri,Calibri_MSFontService,sans-serif" font-weight="400" font-size="41" transform="matrix(1 0 0 1 5545.68 2453)">Diferença Absoluta</text></g><g><rect x="5926" y="2430" width="22" height="23" fill="#FFC000"/></g><g><text fill="#595959" font-family="Calibri,Calibri_MSFontService,sans-serif" font-weight="400" font-size="41" transform="matrix(1 0 0 1 5957.87 2453)">Diferença Relativa</text></g><rect x="4981.5" y="1518.5" width="1798" height="990" stroke="#D9D9D9" stroke-width="3.4375" stroke-linejoin="round" stroke-miterlimit="10" fill="none"/></g></svg>