<svg width="1800" height="993" xmlns="http://www.w3.org/2000/svg" xmlns:xlink="http://www.w3.org/1999/xlink" xml:space="preserve" overflow="hidden"><defs><clipPath id="clip0"><rect x="8851" y="1515" width="1800" height="993"/></clipPath></defs><g clip-path="url(#clip0)" transform="translate(-8851 -1515)"><rect x="8852" y="1516" width="1797" height="990" fill="#FFFFFF"/><g><path d="M8961.5 2233.57 10530.5 2233.57M8961.5 2171.57 10530.5 2171.57M8961.5 2110.57 10530.5 2110.57M8961.5 2048.57 10530.5 2048.57M8961.5 1987.57 10530.5 1987.57M8961.5 1926.56 10530.5 1926.56M8961.5 1864.56 10530.5 1864.56M8961.5 1803.56 10530.5 1803.56M8961.5 1741.56 10530.5 1741.56M8961.5 1680.5 10530.5 1680.5" stroke="#D9D9D9" stroke-width="3.4375" stroke-linejoin="round" stroke-miterlimit="10" fill="none"/></g><g><path d="M9029.3 1855.06 9092.3 1855.06 9092.3 2295 9029.3 2295ZM9291.3 1975.06 9353.31 1975.06 9353.31 2295 9291.3 2295ZM9553.31 1940.06 9615.32 1940.06 9615.32 2295 9553.31 2295ZM9814.32 2109.07 9877.32 2109.07 9877.32 2295 9814.32 2295ZM10337.3 2260.07 10400.3 2260.07 10400.3 2295 10337.3 2295Z" fill="#4472C4"/></g><g><path d="M9092.3 2263.07 9154.3 2263.07 9154.3 2295 9092.3 2295ZM9353.31 1956.06 9416.31 1956.06 9416.31 2295 9353.31 2295ZM9615.32 2277.07 9677.32 2277.07 9677.32 2295 9615.32 2295ZM9877.32 2109.07 9939.33 2109.07 9939.33 2295 9877.32 2295ZM10400.3 2260.07 10462.3 2260.07 10462.3 2295 10400.3 2295Z" fill="#FFC000"/></g><g><path d="M8961.5 2294.5 10530.5 2294.5" stroke="#D9D9D9" stroke-width="3.4375" stroke-linejoin="round" stroke-miterlimit="10" fill="none" fill-rule="evenodd"/></g><g><text fill="#595959" font-family="Calibri,Calibri_MSFontService,sans-serif" font-weight="400" font-size="41" transform="matrix(1 0 0 1 10569.2 2306)">0%</text></g><g><text fill="#595959" font-family="Calibri,Calibri_MSFontService,sans-serif" font-weight="400" font-size="41" transform="matrix(1 0 0 1 10569.2 2183)">1%</text></g><g><text fill="#595959" font-family="Calibri,Calibri_MSFontService,sans-serif" font-weight="400" font-size="41" transform="matrix(1 0 0 1 10569.2 2061)">2%</text></g><g><text fill="#595959" font-family="Calibri,Calibri_MSFontService,sans-serif" font-weight="400" font-size="41" transform="matrix(1 0 0 1 10569.2 1938)">3%</text></g><g><text fill="#595959" font-family="Calibri,Calibri_MSFontService,sans-serif" font-weight="400" font-size="41" transform="matrix(1 0 0 1 10569.2 1815)">4%</text></g><g><text fill="#595959" font-family="Calibri,Calibri_MSFontService,sans-serif" font-weight="400" font-size="41" transform="matrix(1 0 0 1 10569.2 1692)">5%</text></g><g><text fill="#595959" font-family="Calibri,Calibri_MSFontService,sans-serif" font-weight="400" font-size="41" transform="matrix(1 0 0 1 8902.25 2306)">0</text></g><g><text fill="#595959" font-family="Calibri,Calibri_MSFontService,sans-serif" font-weight="400" font-size="41" transform="matrix(1 0 0 1 8902.25 2245)">1</text></g><g><text fill="#595959" font-family="Calibri,Calibri_MSFontService,sans-serif" font-weight="400" font-size="41" transform="matrix(1 0 0 1 8902.25 2183)">2</text></g><g><text fill="#595959" font-family="Calibri,Calibri_MSFontService,sans-serif" font-weight="400" font-size="41" transform="matrix(1 0 0 1 8902.25 2122)">3</text></g><g><text fill="#595959" font-family="Calibri,Calibri_MSFontService,sans-serif" font-weight="400" font-size="41" transform="matrix(1 0 0 1 8902.25 2061)">4</text></g><g><text fill="#595959" font-family="Calibri,Calibri_MSFontService,sans-serif" font-weight="400" font-size="41" transform="matrix(1 0 0 1 8902.25 1999)">5</text></g><g><text fill="#595959" font-family="Calibri,Calibri_MSFontService,sans-serif" font-weight="400" font-size="41" transform="matrix(1 0 0 1 8902.25 1938)">6</text></g><g><text fill="#595959" font-family="Calibri,Calibri_MSFontService,sans-serif" font-weight="400" font-size="41" transform="matrix(1 0 0 1 8902.25 1876)">7</text></g><g><text fill="#595959" font-family="Calibri,Calibri_MSFontService,sans-serif" font-weight="400" font-size="41" transform="matrix(1 0 0 1 8902.25 1815)">8</text></g><g><text fill="#595959" font-family="Calibri,Calibri_MSFontService,sans-serif" font-weight="400" font-size="41" transform="matrix(1 0 0 1 8902.25 1753)">9</text></g><g><text fill="#595959" font-family="Calibri,Calibri_MSFontService,sans-serif" font-weight="400" font-size="41" transform="matrix(1 0 0 1 8881.35 1692)">10</text></g><g><text fill="#595959" font-family="Calibri,Calibri_MSFontService,sans-serif" font-weight="400" font-size="41" transform="matrix(1 0 0 1 9071.11 2360)">P1</text></g><g><text fill="#595959" font-family="Calibri,Calibri_MSFontService,sans-serif" font-weight="400" font-size="41" transform="matrix(1 0 0 1 9332.69 2360)">P2</text></g><g><text fill="#595959" font-family="Calibri,Calibri_MSFontService,sans-serif" font-weight="400" font-size="41" transform="matrix(1 0 0 1 9587.29 2360)">M1</text></g><g><text fill="#595959" font-family="Calibri,Calibri_MSFontService,sans-serif" font-weight="400" font-size="41" transform="matrix(1 0 0 1 9848.88 2360)">M2</text></g><g><text fill="#595959" font-family="Calibri,Calibri_MSFontService,sans-serif" font-weight="400" font-size="41" transform="matrix(1 0 0 1 10115.1 2360)">G1</text></g><g><text fill="#595959" font-family="Calibri,Calibri_MSFontService,sans-serif" font-weight="400" font-size="41" transform="matrix(1 0 0 1 10376.7 2360)">G2</text></g><g><text fill="#595959" font-family="Calibri,Calibri_MSFontService,sans-serif" font-weight="400" font-size="60" transform="matrix(1 0 0 1 9069.6 1607)">Diferenças médias de soluções MOPT comparadas ao BB</text></g><g><rect x="9384" y="2428" width="23" height="23" fill="#4472C4"/></g><g><text fill="#595959" font-family="Calibri,Calibri_MSFontService,sans-serif" font-weight="400" font-size="41" transform="matrix(1 0 0 1 9416.3 2451)">Diferença Absoluta</text></g><g><rect x="9796" y="2428" width="23" height="23" fill="#FFC000"/></g><g><text fill="#595959" font-family="Calibri,Calibri_MSFontService,sans-serif" font-weight="400" font-size="41" transform="matrix(1 0 0 1 9828.5 2451)">Diferença Relativa</text></g><rect x="8852.5" y="1516.5" width="1797" height="990" stroke="#D9D9D9" stroke-width="3.4375" stroke-linejoin="round" stroke-miterlimit="10" fill="none"/></g></svg>