<svg width="1801" height="993" xmlns="http://www.w3.org/2000/svg" xmlns:xlink="http://www.w3.org/1999/xlink" xml:space="preserve" overflow="hidden"><defs><clipPath id="clip0"><rect x="6967" y="1515" width="1801" height="993"/></clipPath></defs><g clip-path="url(#clip0)" transform="translate(-6967 -1515)"><rect x="6968" y="1516" width="1798" height="990" fill="#FFFFFF"/><g><path d="M7119.5 2233.57 8605.5 2233.57M7119.5 2171.57 8605.5 2171.57M7119.5 2110.57 8605.5 2110.57M7119.5 2048.57 8605.5 2048.57M7119.5 1987.57 8605.5 1987.57M7119.5 1926.56 8605.5 1926.56M7119.5 1864.56 8605.5 1864.56M7119.5 1803.56 8605.5 1803.56M7119.5 1741.56 8605.5 1741.56M7119.5 1680.5 8605.5 1680.5" stroke="#D9D9D9" stroke-width="3.4375" stroke-linejoin="round" stroke-miterlimit="10" fill="none"/></g><g><path d="M7184.24 2028.07 7243.24 2028.07 7243.24 2295 7184.24 2295ZM7432.24 2287.07 7491.25 2287.07 7491.25 2295 7432.24 2295ZM7679.25 1854.06 7738.25 1854.06 7738.25 2295 7679.25 2295ZM7927.26 2287.07 7986.26 2287.07 7986.26 2295 7927.26 2295ZM8175.27 1782.06 8234.27 1782.06 8234.27 2295 8175.27 2295ZM8422.28 2287.07 8481.28 2287.07 8481.28 2295 8422.28 2295Z" fill="#4472C4"/></g><g><path d="M7243.24 1875.06 7302.24 1875.06 7302.24 2295 7243.24 2295ZM7491.25 2086.07 7550.25 2086.07 7550.25 2295 7491.25 2295ZM7738.25 1799.06 7797.26 1799.06 7797.26 2295 7738.25 2295ZM7986.26 2102.07 8045.26 2102.07 8045.26 2295 7986.26 2295ZM8234.27 1775.06 8293.27 1775.06 8293.27 2295 8234.27 2295ZM8481.28 2107.07 8540.28 2107.07 8540.28 2295 8481.28 2295Z" fill="#FFC000"/></g><g><path d="M7119.5 2294.5 8605.5 2294.5" stroke="#D9D9D9" stroke-width="3.4375" stroke-linejoin="round" stroke-miterlimit="10" fill="none" fill-rule="evenodd"/></g><g><text fill="#595959" font-family="Calibri,Calibri_MSFontService,sans-serif" font-weight="400" font-size="41" transform="matrix(1 0 0 1 8643.64 2306)">0%</text></g><g><text fill="#595959" font-family="Calibri,Calibri_MSFontService,sans-serif" font-weight="400" font-size="41" transform="matrix(1 0 0 1 8643.64 2245)">10%</text></g><g><text fill="#595959" font-family="Calibri,Calibri_MSFontService,sans-serif" font-weight="400" font-size="41" transform="matrix(1 0 0 1 8643.64 2183)">20%</text></g><g><text fill="#595959" font-family="Calibri,Calibri_MSFontService,sans-serif" font-weight="400" font-size="41" transform="matrix(1 0 0 1 8643.64 2122)">30%</text></g><g><text fill="#595959" font-family="Calibri,Calibri_MSFontService,sans-serif" font-weight="400" font-size="41" transform="matrix(1 0 0 1 8643.64 2061)">40%</text></g><g><text fill="#595959" font-family="Calibri,Calibri_MSFontService,sans-serif" font-weight="400" font-size="41" transform="matrix(1 0 0 1 8643.64 1999)">50%</text></g><g><text fill="#595959" font-family="Calibri,Calibri_MSFontService,sans-serif" font-weight="400" font-size="41" transform="matrix(1 0 0 1 8643.64 1938)">60%</text></g><g><text fill="#595959" font-family="Calibri,Calibri_MSFontService,sans-serif" font-weight="400" font-size="41" transform="matrix(1 0 0 1 8643.64 1876)">70%</text></g><g><text fill="#595959" font-family="Calibri,Calibri_MSFontService,sans-serif" font-weight="400" font-size="41" transform="matrix(1 0 0 1 8643.64 1815)">80%</text></g><g><text fill="#595959" font-family="Calibri,Calibri_MSFontService,sans-serif" font-weight="400" font-size="41" transform="matrix(1 0 0 1 8643.64 1753)">90%</text></g><g><text fill="#595959" font-family="Calibri,Calibri_MSFontService,sans-serif" font-weight="400" font-size="41" transform="matrix(1 0 0 1 8643.64 1692)">100%</text></g><g><text fill="#595959" font-family="Calibri,Calibri_MSFontService,sans-serif" font-weight="400" font-size="41" transform="matrix(1 0 0 1 7060.3 2306)">0</text></g><g><text fill="#595959" font-family="Calibri,Calibri_MSFontService,sans-serif" font-weight="400" font-size="41" transform="matrix(1 0 0 1 7018.5 2245)">500</text></g><g><text fill="#595959" font-family="Calibri,Calibri_MSFontService,sans-serif" font-weight="400" font-size="41" transform="matrix(1 0 0 1 6997.6 2183)">1000</text></g><g><text fill="#595959" font-family="Calibri,Calibri_MSFontService,sans-serif" font-weight="400" font-size="41" transform="matrix(1 0 0 1 6997.6 2122)">1500</text></g><g><text fill="#595959" font-family="Calibri,Calibri_MSFontService,sans-serif" font-weight="400" font-size="41" transform="matrix(1 0 0 1 6997.6 2061)">2000</text></g><g><text fill="#595959" font-family="Calibri,Calibri_MSFontService,sans-serif" font-weight="400" font-size="41" transform="matrix(1 0 0 1 6997.6 1999)">2500</text></g><g><text fill="#595959" font-family="Calibri,Calibri_MSFontService,sans-serif" font-weight="400" font-size="41" transform="matrix(1 0 0 1 6997.6 1938)">3000</text></g><g><text fill="#595959" font-family="Calibri,Calibri_MSFontService,sans-serif" font-weight="400" font-size="41" transform="matrix(1 0 0 1 6997.6 1876)">3500</text></g><g><text fill="#595959" font-family="Calibri,Calibri_MSFontService,sans-serif" font-weight="400" font-size="41" transform="matrix(1 0 0 1 6997.6 1815)">4000</text></g><g><text fill="#595959" font-family="Calibri,Calibri_MSFontService,sans-serif" font-weight="400" font-size="41" transform="matrix(1 0 0 1 6997.6 1753)">4500</text></g><g><text fill="#595959" font-family="Calibri,Calibri_MSFontService,sans-serif" font-weight="400" font-size="41" transform="matrix(1 0 0 1 6997.6 1692)">5000</text></g><g><text fill="#595959" font-family="Calibri,Calibri_MSFontService,sans-serif" font-weight="400" font-size="41" transform="matrix(1 0 0 1 7222.19 2360)">P1</text></g><g><text fill="#595959" font-family="Calibri,Calibri_MSFontService,sans-serif" font-weight="400" font-size="41" transform="matrix(1 0 0 1 7469.84 2360)">P2</text></g><g><text fill="#595959" font-family="Calibri,Calibri_MSFontService,sans-serif" font-weight="400" font-size="41" transform="matrix(1 0 0 1 7710.51 2360)">M1</text></g><g><text fill="#595959" font-family="Calibri,Calibri_MSFontService,sans-serif" font-weight="400" font-size="41" transform="matrix(1 0 0 1 7958.16 2360)">M2</text></g><g><text fill="#595959" font-family="Calibri,Calibri_MSFontService,sans-serif" font-weight="400" font-size="41" transform="matrix(1 0 0 1 8210.43 2360)">G1</text></g><g><text fill="#595959" font-family="Calibri,Calibri_MSFontService,sans-serif" font-weight="400" font-size="41" transform="matrix(1 0 0 1 8458.08 2360)">G2</text></g><g><text fill="#595959" font-family="Calibri,Calibri_MSFontService,sans-serif" font-weight="400" font-size="60" transform="matrix(1 0 0 1 7200.24 1607)">Diferenças médias de soluções MOP comparadas ao BB</text></g><g><rect x="7500" y="2428" width="23" height="23" fill="#4472C4"/></g><g><text fill="#595959" font-family="Calibri,Calibri_MSFontService,sans-serif" font-weight="400" font-size="41" transform="matrix(1 0 0 1 7532.55 2451)">Diferença Absoluta</text></g><g><rect x="7912" y="2428" width="23" height="23" fill="#FFC000"/></g><g><text fill="#595959" font-family="Calibri,Calibri_MSFontService,sans-serif" font-weight="400" font-size="41" transform="matrix(1 0 0 1 7944.75 2451)">Diferença Relativa</text></g><rect x="6968.5" y="1516.5" width="1798" height="990" stroke="#D9D9D9" stroke-width="3.4375" stroke-linejoin="round" stroke-miterlimit="10" fill="none"/></g></svg>